<?xml version="1.0" encoding="utf-8"?>
<!-- Generator: Adobe Illustrator 21.0.0, SVG Export Plug-In . SVG Version: 6.00 Build 0)  -->
<svg version="1.1" id="Capa_1" xmlns="http://www.w3.org/2000/svg" xmlns:xlink="http://www.w3.org/1999/xlink" x="0px" y="0px"
	 viewBox="0 0 512 512" style="enable-background:new 0 0 512 512;" xml:space="preserve">
<style type="text/css">
	.st0{fill:#A0C95F;}
</style>
<g>
	<path class="st0" d="M384.1,0c0,0-42.1,40.9-87.7,57.3C-40.9,179.4,101.4,417.2,106,418c0,0,18.9-32.9,44.5-51.7
		C312.7,247,345.6,109.8,345.6,109.8s-36.4,165.1-180.7,267.9c-31.9,22.7-53.4,78.5-62.6,134.3c0,0,22.6-9.1,32.3-11.6
		c3.8-24.7,11.7-48.4,25.1-69.5c201.6,24,267.7-138.5,276.3-195.1C456.4,101.9,384.1,0,384.1,0z"/>
</g>
</svg>
