<?xml version="1.0" encoding="utf-8"?>
<!-- Generator: Adobe Illustrator 21.0.0, SVG Export Plug-In . SVG Version: 6.00 Build 0)  -->
<svg version="1.1" id="Camada_1" xmlns="http://www.w3.org/2000/svg" xmlns:xlink="http://www.w3.org/1999/xlink" x="0px" y="0px"
	 viewBox="0 0 459.4 384" style="enable-background:new 0 0 459.4 384;" xml:space="preserve">
<style type="text/css">
	.st0{fill:#D38A17;}
</style>
<g id="Camada_x0020_1">
	<g id="_1541465105888">
	</g>
	<g id="_1541465091200">
	</g>
	<g id="_1541465091552">
	</g>
	<g id="_1541465090560">
	</g>
	<g id="_1541469278384">
	</g>
	<g id="_1541469278160">
	</g>
	<g id="_1541469277968">
	</g>
	<g id="_1541469277680">
	</g>
	<g id="_1541469277872">
	</g>
	<g id="_1541469277808">
	</g>
	<g id="_1541469274928">
	</g>
	<g id="_1541469287408">
	</g>
	<g id="_1541469285968">
	</g>
	<g id="_1541469286480">
	</g>
	<g id="_1541469286512">
	</g>
	<path class="st0" d="M82.3,134.6c0,0,13.6-32.3,57-67.2c43.3-34.8,50.1-32.3,63.7-30.6c13.6,1.7,36.6,6.8,68.9,47.6
		c32.3,40.8,45.1,85.9,76.5,102c31.4,16.2,73.1,46.8,84.2,76.5c11.1,29.8,29.8,40,26.4,57c-3.4,17-36.6,17.9-68.9,21.3
		c-32.3,3.4-153.9,6.8-153.9,6.8s-111.4-1.7-130.1-6c-18.7-4.2-75.7-19.5-95.2-34c-19.5-14.5-10.2-16.2,7.7-33.2
		c17.9-17,28.9-45,51-102.9C91.7,114.2,82.3,134.6,82.3,134.6z M271.8,153.2c2.6,1,4.9,5.4,6.7,8.8c1.9,3.3,3.3,5.5,7.3,9.7
		c4,4.2,10.7,10.3,17,15.2c6.3,4.8,12.1,8.2,20.8,12.4c8.7,4.3,20.1,9.4,29.6,15.2c9.5,5.8,16.9,12.3,20.6,17
		c3.7,4.7,3.7,7.7,0.8,6.3c-2.9-1.4-8.9-7.1-15.1-12.2c-6.2-5-12.7-9.4-20.1-12.9c-7.4-3.5-15.8-6.3-20.4-7.7
		c-4.6-1.4-5.3-1.4-9.7-3.9c-4.3-2.6-12.2-7.7-19.6-10.4c-7.3-2.7-14.1-3.2-26.7,1.2c-12.6,4.3-31,13.4-31.9,8.5
		c-0.9-4.9,15.7-23.8,25.5-34.6C266.3,154.8,269.2,152.2,271.8,153.2z"/>
</g>
</svg>
