<?xml version="1.0" encoding="utf-8"?>
<!-- Generator: Adobe Illustrator 21.0.0, SVG Export Plug-In . SVG Version: 6.00 Build 0)  -->
<svg version="1.1" id="Capa_1" xmlns="http://www.w3.org/2000/svg" xmlns:xlink="http://www.w3.org/1999/xlink" x="0px" y="0px"
	 viewBox="0 0 512 512" style="enable-background:new 0 0 512 512;" xml:space="preserve">
<style type="text/css">
	.st0{fill:#226EDF;}
</style>
<g>
	<path class="st0" d="M364.9,142.8C328.6,82.9,288.2,31,267.4,5.4C264.6,2,260.4,0,256,0c-4.4,0-8.6,2-11.4,5.4
		c-20.8,25.6-61.2,77.5-97.5,137.4C100.3,220,76.6,283.9,76.6,332.6C76.6,431.5,157.1,512,256,512s179.4-80.5,179.4-179.4
		C435.4,283.9,411.7,220,364.9,142.8z M280.6,445.9c-10.5,2.7-21.4,4-32.3,4c-67,0-121.6-50.7-121.6-112.9c0-15,4-32.6,11.8-52.2
		c1.3-3.3,5.1-5.2,8.8-4.4c3.7,0.8,6.2,4,5.8,7.5c-0.5,4.2-0.7,8.3-0.7,12.2c0,67.8,54.6,124.5,127,132c3.6,0.4,6.4,3.1,6.7,6.4
		C286.4,441.9,284.1,445,280.6,445.9z"/>
</g>
</svg>
